<?xml version="1.0" encoding="UTF-8" standalone="no"?>
<!DOCTYPE svg PUBLIC "-//W3C//DTD SVG 1.1//EN" "http://www.w3.org/Graphics/SVG/1.1/DTD/svg11.dtd">
<svg width="100%" height="100%" viewBox="0 0 1208 1208" version="1.1" xmlns="http://www.w3.org/2000/svg" xmlns:xlink="http://www.w3.org/1999/xlink" xml:space="preserve" xmlns:serif="http://www.serif.com/" style="fill-rule:evenodd;clip-rule:evenodd;stroke-linejoin:round;stroke-miterlimit:2;">
    <g transform="matrix(1,0,0,1,-437.6875,-437.6875)">
        <g transform="matrix(4.166667,0,0,4.166667,0,0)">
            <g id="Layer-1" serif:id="Layer 1" transform="matrix(1,0,0,1,0,73.045)">
                <g transform="matrix(235.225555,-235.225555,-235.225555,-235.225555,117.272646,309.681535)">
                    <path d="M0.256,0.308C0.22,0.272 0.192,0.232 0.171,0.189C0.138,0.142 0.121,0.123 0.089,0.1C0.065,0.084 0.041,0.083 0.025,0.063C0.01,0.044 0.001,0.033 0,0.002C-0,-0.033 0.017,-0.049 0.022,-0.055C0.037,-0.076 0.061,-0.079 0.083,-0.096C0.118,-0.123 0.143,-0.144 0.181,-0.208C0.181,-0.208 0.181,-0.208 0.181,-0.208C0.201,-0.244 0.226,-0.278 0.256,-0.308C0.426,-0.478 0.702,-0.478 0.872,-0.308C1.043,-0.138 1.043,0.138 0.872,0.308C0.702,0.478 0.426,0.478 0.256,0.308Z" style="fill:url(#_Linear1);fill-rule:nonzero;"/>
                </g>
                <g transform="matrix(0,-1,-1,0,270.1201,120.2967)">
                    <path d="M-9.81,-9.81C-4.392,-9.81 0,-5.418 0,0C0,5.417 -4.392,9.81 -9.81,9.81C-15.228,9.81 -19.62,5.417 -19.62,0C-19.62,-5.418 -15.228,-9.81 -9.81,-9.81" style="fill:rgb(253,113,200);fill-rule:nonzero;"/>
                </g>
                <g transform="matrix(1,0,0,1,236.7338,246.7214)">
                    <path d="M0,-134.783C-5.065,-134.783 -9.262,-131.007 -9.763,-126L-9.781,-125.819L-9.781,-37.134L-9.763,-36.952C-9.262,-31.945 -5.064,-28.169 0,-28.169C5.427,-28.169 9.843,-32.54 9.843,-37.911L9.843,-125.041C9.843,-130.413 5.427,-134.783 0,-134.783M33.102,-103.176C29.023,-103.176 23.221,-100.721 23.221,-95.133L23.221,-37.911C23.221,-29.893 29.023,-28.169 33.102,-28.169C38.473,-28.169 42.844,-32.54 42.844,-37.911L42.844,-93.434C42.844,-98.806 38.473,-103.176 33.102,-103.176M93.305,-104.714C88.48,-104.714 83.908,-103.668 79.827,-101.656C78.115,-100.812 74.035,-101.056 73.011,-101.569C71.969,-102.09 71.265,-103.176 70.022,-103.176L59.04,-103.176C56.912,-103.176 55.233,-101.366 55.392,-99.244C55.778,-94.1 55.942,-88.703 55.942,-81.197L55.942,-37.911C56.028,-34.412 56.375,-34.253 56.375,-34.253C57.911,-30.473 62.179,-27.867 66.573,-28.197C71.747,-28.587 75.566,-33.253 75.566,-38.442L75.566,-72.525C75.566,-74.269 75.796,-75.945 76.184,-77.008L76.245,-77.189C77.768,-82.166 82.38,-87.188 89.25,-87.188C97.216,-87.188 101.255,-81.69 101.255,-70.847L101.255,-37.911C101.544,-29.33 107.492,-27.867 111.886,-28.197C117.059,-28.587 120.878,-33.253 120.878,-38.442L120.878,-72.246C120.878,-96.211 106.024,-104.714 93.305,-104.714M-54.503,-43.597C-61.55,-43.597 -67.515,-48.228 -69.389,-55.137C-69.39,-55.141 -69.391,-55.145 -69.392,-55.149C-69.644,-56.547 -69.865,-57.926 -69.865,-59.378L-69.865,-70.987C-69.865,-72.304 -69.46,-73.941 -69.142,-75.109C-67.246,-82.468 -61.054,-87.607 -54.083,-87.607C-42.699,-87.607 -37.602,-76.802 -37.602,-66.092C-37.602,-52.006 -43.92,-43.597 -54.503,-43.597M-50.307,-104.714C-55.712,-104.714 -60.654,-103.618 -64.977,-101.496C-70.352,-98.599 -71.127,-101.056 -71.644,-101.716C-72.164,-102.38 -72.041,-103.191 -74.684,-103.176L-83.911,-103.176C-83.911,-103.176 -90.193,-103.537 -89.905,-99.359C-89.905,-99.359 -89.349,-85.87 -89.349,-77.421L-89.349,-10.733C-89.349,-5.602 -85.612,-0.976 -80.502,-0.518C-74.729,0 -69.865,-4.553 -69.865,-10.22L-69.865,-26.206C-69.865,-28.593 -67.407,-30.285 -65.233,-29.298C-61.391,-27.553 -57.027,-26.631 -52.405,-26.631C-35.824,-26.631 -17.979,-39.154 -17.979,-66.651C-17.979,-88.707 -31.575,-104.714 -50.307,-104.714" style="fill:white;fill-rule:nonzero;"/>
                </g>
            </g>
        </g>
    </g>
    <defs>
        <linearGradient id="_Linear1" x1="0" y1="0" x2="1" y2="0" gradientUnits="userSpaceOnUse" gradientTransform="matrix(1,0,0,-1,0,-0.000001)"><stop offset="0" style="stop-color:rgb(41,130,248);stop-opacity:1"/><stop offset="0.33" style="stop-color:rgb(16,188,223);stop-opacity:1"/><stop offset="0.6" style="stop-color:rgb(5,215,211);stop-opacity:1"/><stop offset="1" style="stop-color:rgb(0,226,206);stop-opacity:1"/></linearGradient>
    </defs>
</svg>
